# xmcd
#
# Track frame offsets:
#	150
#	13576
#	26709
#	39908
#	55283
#	68421
#	82828
#	97162
#	110793
#	125183
#	140126
#	154532
#	168627
#	183341
#	196570
#	208888
#	223140
#	237208
#	253275
#	267796
#	282663
#	297044
#	309198
#	323186
#	336294
#
# Disc length: 4681 seconds
#
# Revision: 0
# Processed by: cddbd v1.5.1PL0 Copyright (c) Steve Scherf et al.
# Submitted via: audiograbber 1.83.01
#
DISCID=7b124719
DTITLE=Various Artist - Atlanta Blues - CD 4
DYEAR=2005
DGENRE=Blues
TTITLE0=Peg Leg Howell - Monkey Man Blues
TTITLE1=Peg Leg Howell - Chittlin' Supper
TTITLE2=Peg Leg Howell - Away from Home
TTITLE3=Henry Williams and Eddie Anthony - Georgia Crawl
TTITLE4=Henry Williams and Eddie Anthony - Lonesome Blues
TTITLE5=Macon Ed and Tampa Joe - Winging That Thing
TTITLE6=Macon Ed and Tampa Joe - Worrying Blues
TTITLE7=Macon Ed and Tampa Joe - Everything's Coming My Way
TTITLE8=Macon Ed and Tampa Joe - Mean Florida Blues
TTITLE9=Macon Ed and Tampa Joe - Try That Thing
TTITLE10=Macon Ed and Tampa Joe - Tickle Britches
TTITLE11=Macon Ed and Tampa Joe - Tantalizing Bootblack
TTITLE12=Macon Ed and Tampa Joe - Warm Wipe Stomp
TTITLE13='Sloppy' Henry - Canned Heat Blues
TTITLE14='Sloppy' Henry - Say I Do It
TTITLE15='Sloppy' Henry - Long, Tall, Disconnected Mama
TTITLE16='Sloppy' Henry - Royal Palm Special Blues
TTITLE17=Lil McClintock - Furniture Man
TTITLE18=Lil McClintock - Don't Think I'm Santa Claus
TTITLE19=Lil McClintock - Sow Good Seeds
TTITLE20=Lil McClintock - Mother Called Her Child to Her Dying Bed
TTITLE21=Lillie Mae - Buggy Jail House Blues
TTITLE22=Lillie Mae - Wise Like That
TTITLE23=Lillie Mae - Mama Don't Want It
TTITLE24=Lillie Mae - Bootie Wah Bottie
EXTD=JSP7754D
EXTT0=
EXTT1=
EXTT2=
EXTT3=
EXTT4=
EXTT5=
EXTT6=
EXTT7=
EXTT8=
EXTT9=
EXTT10=
EXTT11=
EXTT12=
EXTT13=
EXTT14=
EXTT15=
EXTT16=
EXTT17=
EXTT18=
EXTT19=
EXTT20=
EXTT21=
EXTT22=
EXTT23=
EXTT24=
PLAYORDER=
